<?xml version="1.0" encoding="utf-8"?>
<!-- Generator: Adobe Illustrator 25.1.0, SVG Export Plug-In . SVG Version: 6.00 Build 0)  -->
<svg version="1.1" xmlns="http://www.w3.org/2000/svg" xmlns:xlink="http://www.w3.org/1999/xlink" x="0px" y="0px"
	 viewBox="0 0 1920 1080" style="enable-background:new 0 0 1920 1080;" xml:space="preserve">
<style type="text/css">
	.st0{fill:url(#SVGID_1_);}
	.st1{fill:url(#SVGID_2_);}
	.st2{opacity:0.85;fill:url(#SVGID_3_);}
</style>
<g id="Layer_1">
</g>
<g id="Layer_4">
	<linearGradient id="SVGID_1_" gradientUnits="userSpaceOnUse" x1="452.2891" y1="285.8673" x2="1582.7109" y2="1416.2891">
		<stop  offset="0.0391" style="stop-color:#FBA9B2"/>
		<stop  offset="0.2737" style="stop-color:#EEA0A9"/>
		<stop  offset="0.5978" style="stop-color:#E48C96"/>
		<stop  offset="0.7737" style="stop-color:#E46E7A"/>
	</linearGradient>
	<path class="st0" d="M1919,1080H2V736.16c61.01-32.79,148.69-68.92,257.88-81c40.66-4.5,108.77-11.46,194.42,7
		c70.32,15.16,135.12,43.72,169.24,67c3.82,2.6,17.09,11.86,36.26,24c10.13,6.41,31.96,20.18,59.43,35
		c18.44,9.94,49.72,26.68,92.68,43c33.02,12.55,55.78,21.19,87.64,26c24.04,3.63,50.94,4.72,84.62,1
		c105.54-11.64,238.74-66,238.74-66c309.53-126.31,324.37-114.22,407.98-167c14.94-9.43,52.94-29.62,128.94-70
		c28.68-15.24,65.73-34.53,117.86-43c17.08-2.77,31.44-3.68,41.3-4"/>
</g>
<g id="Layer_3">
	<linearGradient id="SVGID_2_" gradientUnits="userSpaceOnUse" x1="960" y1="1080" x2="960" y2="550.8036">
		<stop  offset="0.162" style="stop-color:#BABFFA"/>
		<stop  offset="0.5028" style="stop-color:#868AFF"/>
		<stop  offset="0.8855" style="stop-color:#5A5FFE"/>
	</linearGradient>
	<path class="st1" d="M0,551.16c15.62-0.86,38.98-0.6,66,6c31.03,7.59,51.73,19.84,85,40c48.49,29.38,72.74,44.07,109,67
		c53.69,33.96,80.54,50.94,113,70c31.14,18.29,63.91,37.45,109,60c28.69,14.35,65.02,32.38,115,51c35.94,13.39,59.62,22.07,94,28
		c35.39,6.11,63.58,6.1,84,6c13.86-0.07,48.17-0.74,92-8c53.77-8.9,92.92-22.91,104-27c24.83-9.15,24.25-11.06,80-37
		c51.31-23.87,53.06-22.84,122-54c63.81-28.84,60.3-28.82,94-43c27.17-11.43,63.61-26.66,113-42c46.09-14.32,81.72-21.99,110-28
		c45.66-9.71,68.49-14.56,101-17c14.66-1.1,52.82-3.34,102,2c57.67,6.26,54.9,14.74,110,19c13.94,1.08,21.42,1.1,85,5
		c13.45,0.83,24.54,1.53,32,2V1080H0V551.16z"/>
</g>
<g id="Layer_2">
	<linearGradient id="SVGID_3_" gradientUnits="userSpaceOnUse" x1="1" y1="830.0543" x2="1921" y2="830.0543">
		<stop  offset="0.162" style="stop-color:#FBEDA6"/>
		<stop  offset="0.5028" style="stop-color:#F2CB64"/>
		<stop  offset="0.8855" style="stop-color:#F2B55E"/>
	</linearGradient>
	<path class="st2" d="M1921,1080H1V650.16c88.66,77.99,171.05,125.89,230,155c77.77,38.41,123.39,48.4,142,52
		c33.33,6.44,100.71,18.77,179,0c30.27-7.26,61.85-19.09,123-42c13.55-5.08,32.11-12.17,54-21c107.81-43.46,210.09-94.04,311-135
		c127.8-51.88,191.7-77.82,273-79c23.29-0.34,106.14,0.21,185,33c37.06,15.41,69,35,69,35c33.46,20.53,37.15,28.5,69,48
		c24.34,14.9,43.9,23.27,83,40c28.23,12.08,55.17,23.61,92,35c27.47,8.5,64.69,18.24,110,25"/>
</g>
</svg>
